{"title":"Put za Montevideo (Montevideo Bog te video series S02E01)","uid":7978634,"size":470450176,"categoryP":"video","categoryS":"tv_shows","magnet":"?xt=urn:btih:51c67cd97805fc00ccda368d4c012b1e6c814200&amp;dn=Put+za+Montevideo+%28Montevideo+Bog+te+video+series+S02E01%29&amp;tr=udp%3A%2F%2Ftracker.openbittorrent.com%3A80&amp;tr=udp%3A%2F%2Fopen.demonii.com%3A1337&amp;tr=udp%3A%2F%2Ftracker.coppersurfer.tk%3A6969&amp;tr=udp%3A%2F%2Fexodus.desync.com%3A6969","seeders":1,"leechers":0,"uploader":"lukamag","files":1,"time":1357082031,"description":"General\n\nComplete name                    : Montevideo-Na putu za Montevideo.avi\n\nFormat                           : AVI\n\nFormat/Info                      : Audio Video Interleave\n\nFile size                        : 449 MiB\n\nDuration                         : 52mn 13s\n\nOverall bit rate                 : 1 201 Kbps\n\nWriting application              : Nandub v1.0rc2\n\nWriting library                  : Nandub build 1853/release\n\n\n\nVideo\n\nID                               : 0\n\nFormat                           : MPEG-4 Visual\n\nCodec ID                         : XVID\n\nCodec ID/Hint                    : XviD\n\nDuration                         : 52mn 13s\n\nBit rate                         : 1 061 Kbps\n\nWidth                            : 720 pixels\n\nHeight                           : 416 pixels\n\nDisplay aspect ratio             : 16:9\n\nFrame rate                       : 25.000 fps\n\nColor space                      : YUV\n\nChroma subsampling               : 4:2:0\n\nCompression mode                 : Lossy\n\nBits/(Pixel*Frame)               : 0.142\n\nStream size                      : 396 MiB (88%)\n\n\n\nAudio\n\nID                               : 1\n\nFormat                           : MPEG Audio\n\nFormat version                   : Version 1\n\nFormat profile                   : Layer 3\n\nMode                             : Joint stereo\n\nCodec ID                         : 55\n\nCodec ID/Hint                    : MP3\n\nDuration                         : 52mn 13s\n\nBit rate mode                    : Constant\n\nBit rate                         : 128 Kbps\n\nChannel(s)                       : 2 channels\n\nSampling rate                    : 44.1 KHz\n\nCompression mode                 : Lossy\n\nStream size                      : 47.8 MiB (11%)\n\nAlignment                        : Aligned on interleaves\n\nInterleave, duration             : 26 ms (0.65 video frame)\n\nInterleave, preload duration     : 496 ms","torrent":{"xt":"urn:btih:51c67cd97805fc00ccda368d4c012b1e6c814200","amp;dn":"Put+za+Montevideo+%28Montevideo+Bog+te+video+series+S02E01%29","amp;tr":["udp%3A%2F%2Ftracker.openbittorrent.com%3A80","udp%3A%2F%2Fopen.demonii.com%3A1337","udp%3A%2F%2Ftracker.coppersurfer.tk%3A6969","udp%3A%2F%2Fexodus.desync.com%3A6969"],"infoHash":"51c67cd97805fc00ccda368d4c012b1e6c814200","infoHashBuffer":{"type":"Buffer","data":[81,198,124,217,120,5,252,0,204,218,54,141,76,1,43,30,108,129,66,0]},"announce":[],"urlList":[]}}